<svg xmlns="http://www.w3.org/2000/svg" width="760.5" height="71.5" viewBox="0 0 760.5 71.5">
  <g id="Raggruppa_5" data-name="Raggruppa 5" transform="translate(-775.5 -247)">
    <rect id="Rettangolo_887" data-name="Rettangolo 887" width="760" height="70" transform="translate(776 247)" fill="rgba(255,255,255,0.95)"/>
    <text id="Lorem_ipsum_dolor_sit_amet" data-name="Lorem ipsum dolor sit amet" transform="translate(814 288)" fill="#333" font-size="18" font-family="Karbon-Regular, Karbon"><tspan x="0" y="0">5</tspan></text>
    <text id="Naliquid_ex_ea_commodi_consequa_" data-name="Naliquid ex ea commodi consequa
" transform="translate(959 288)" fill="#333" font-size="18" font-family="Karbon-Regular, Karbon"><tspan x="0" y="0">Naliquid ex ea commodi consequa</tspan><tspan x="0" y="19"></tspan></text>
    <line id="Linea_9" data-name="Linea 9" x2="760" transform="translate(775.5 317.5)" fill="none" stroke="#00a0df" stroke-width="2"/>
    <g id="check-mark" transform="translate(1453.365 272)">
      <g id="Raggruppa_491" data-name="Raggruppa 491" transform="translate(1.636 0)">
        <g id="Raggruppa_490" data-name="Raggruppa 490" transform="translate(0 0)">
          <path id="Tracciato_730" data-name="Tracciato 730" d="M8.732,20a1.992,1.992,0,0,1-1.588-.79L2.039,12.469a1.992,1.992,0,0,1,3.176-2.4L8.573,14.5,17.018.939A1.992,1.992,0,1,1,20.4,3.045L10.423,19.062a1.991,1.991,0,0,1-1.6.937Z" transform="translate(-1.636 0)" fill="#00a0df"/>
        </g>
      </g>
    </g>
  </g>
</svg>
